<svg xmlns="http://www.w3.org/2000/svg" width="16" height="16" viewBox="0 0 16 16" fill="none">
  <path fill-rule="evenodd" clip-rule="evenodd" d="M8 1C4.13401 1 1 4.13401 1 8C1 11.866 4.13401 15 8 15C11.866 15 15 11.866 15 8C15 4.13401 11.866 1 8 1ZM5.5 6.5C5.5 5.67157 6.17157 5 7 5H9C9.82843 5 10.5 5.67157 10.5 6.5V9.5C10.5 10.3284 9.82843 11 9 11H7C6.17157 11 5.5 10.3284 5.5 9.5V6.5ZM7 6C6.72386 6 6.5 6.22386 6.5 6.5V9.5C6.5 9.77614 6.72386 10 7 10H9C9.27614 10 9.5 9.77614 9.5 9.5V6.5C9.5 6.22386 9.27614 6 9 6H7Z" fill="#424242"/>
</svg> 