<svg xmlns="http://www.w3.org/2000/svg" width="16" height="16" viewBox="0 0 16 16" fill="none">
  <path fill-rule="evenodd" clip-rule="evenodd" d="M3 2C3 1.44772 3.44772 1 4 1H12C12.5523 1 13 1.44772 13 2V3H14C14.5523 3 15 3.44772 15 4V12C15 12.5523 14.5523 13 14 13H10V14C10 14.5523 9.55228 15 9 15H7C6.44772 15 6 14.5523 6 14V13H2C1.44772 13 1 12.5523 1 12V4C1 3.44772 1.44772 3 2 3H3V2ZM4 3H12V2H4V3ZM3 4H2V12H6V10.5C6 10.2239 6.22386 10 6.5 10H9.5C9.77614 10 10 10.2239 10 10.5V12H14V4H13V5C13 5.55228 12.5523 6 12 6H4C3.44772 6 3 5.55228 3 5V4ZM7 12H9V11H7V12ZM7 14V13H9V14H7Z" fill="#424242"/>
</svg> 