<svg xmlns="http://www.w3.org/2000/svg" width="16" height="16" viewBox="0 0 16 16" fill="none">
  <path fill-rule="evenodd" clip-rule="evenodd" d="M10.4142 5L8.70711 3.29289C8.31658 2.90237 7.68342 2.90237 7.29289 3.29289L5.58579 5H4C2.89543 5 2 5.89543 2 7V11C2 12.1046 2.89543 13 4 13H12C13.1046 13 14 12.1046 14 11V7C14 5.89543 13.1046 5 12 5H10.4142ZM9.41421 5L8 3.58579L6.58579 5H9.41421ZM6 8.5C6.55228 8.5 7 8.05228 7 7.5C7 6.94772 6.55228 6.5 6 6.5C5.44772 6.5 5 6.94772 5 7.5C5 8.05228 5.44772 8.5 6 8.5ZM11 7.5C11 8.05228 10.5523 8.5 10 8.5C9.44772 8.5 9 8.05228 9 7.5C9 6.94772 9.44772 6.5 10 6.5C10.5523 6.5 11 6.94772 11 7.5ZM8 10.5C9.10457 10.5 10 9.60457 10 8.5H6C6 9.60457 6.89543 10.5 8 10.5Z" fill="#424242"/>
</svg> 